<svg width="512" height="512" viewBox="0 0 512 512" fill="none" xmlns="http://www.w3.org/2000/svg">
  <rect width="512" height="512" rx="256" fill="#2E7D32"/>
  <path d="M256 100C169.4 100 100 169.4 100 256C100 342.6 169.4 412 256 412C342.6 412 412 342.6 412 256C412 169.4 342.6 100 256 100ZM256 140C320.1 140 372 191.9 372 256C372 320.1 320.1 372 256 372C191.9 372 140 320.1 140 256C140 191.9 191.9 140 256 140Z" fill="white"/>
  <path d="M256 188C222.9 188 196 214.9 196 248C196 281.1 222.9 308 256 308C289.1 308 316 281.1 316 248C316 214.9 289.1 188 256 188ZM256 188C238.3 188 224 204.8 224 224.5C224 244.2 238.3 261 256 261C273.7 261 288 244.2 288 224.5C288 204.8 273.7 188 256 188Z" fill="white"/>
  <path d="M256 100V140M256 372V412M100 256H140M372 256H412M150.7 150.7L180 180M332 332L361.3 361.3M150.7 361.3L180 332M332 180L361.3 150.7" stroke="white" stroke-width="16" stroke-linecap="round"/>
</svg>